<svg width="12.009888" height="12.000244" viewBox="0 0 12.0099 12.0002" fill="none" xmlns="http://www.w3.org/2000/svg" xmlns:xlink="http://www.w3.org/1999/xlink">
	<desc>
			Created with Pixso.
	</desc>
	<defs/>
	<path id="Vector" d="M11.71 5.29C11.62 5.19 11.51 5.12 11.38 5.07C11.26 5.02 11.13 4.99 11 4.99C10.87 4.99 10.74 5.02 10.61 5.07C10.49 5.12 10.38 5.19 10.29 5.29L7 8.58L7 1C7 0.73 6.89 0.48 6.71 0.29C6.52 0.1 6.26 0 6 0C5.73 0 5.48 0.1 5.29 0.29C5.1 0.48 5 0.73 5 1L5 8.58L1.71 5.29C1.52 5.1 1.27 4.99 1 4.99C0.73 4.99 0.48 5.1 0.29 5.29C0.1 5.47 0 5.73 0 6C0 6.26 0.1 6.52 0.29 6.7L5.29 11.71C5.38 11.8 5.5 11.87 5.62 11.92C5.74 11.97 5.87 12 6 12C6.13 12 6.26 11.97 6.38 11.92C6.5 11.87 6.61 11.8 6.71 11.71L11.71 6.7C11.8 6.61 11.88 6.5 11.93 6.38C11.98 6.26 12 6.13 12 6C12 5.86 11.98 5.73 11.93 5.61C11.88 5.49 11.8 5.38 11.71 5.29Z" fill="#000000" fill-opacity="1.000000" fill-rule="nonzero"/>
</svg>
