<svg width="20.000004" height="20.000000" viewBox="0 0 20 20" fill="none" xmlns="http://www.w3.org/2000/svg" xmlns:xlink="http://www.w3.org/1999/xlink">
	<desc>
			Created with Pixso.
	</desc>
	<defs/>
	<path id="Vector" d="M4.44 1.68C6.08 0.58 8.02 0 10 0C11.31 0 12.61 0.25 13.82 0.76C15.04 1.26 16.14 2 17.07 2.92C17.99 3.85 18.73 4.95 19.23 6.17C19.74 7.38 20 8.68 20 10C20 11.97 19.41 13.91 18.31 15.55C17.21 17.2 15.65 18.48 13.82 19.23C11.99 19.99 9.98 20.19 8.04 19.8C6.1 19.42 4.32 18.46 2.92 17.07C1.53 15.67 0.57 13.89 0.19 11.95C-0.2 10.01 0 8 0.76 6.17C1.51 4.34 2.79 2.78 4.44 1.68ZM5.55 16.65C6.87 17.53 8.41 18 10 18C12.12 18 14.15 17.15 15.65 15.65C17.15 14.15 18 12.12 18 10C18 8.41 17.53 6.87 16.65 5.55C15.77 4.23 14.52 3.21 13.06 2.6C11.59 2 9.99 1.84 8.43 2.15C6.88 2.46 5.46 3.22 4.34 4.34C3.22 5.46 2.46 6.88 2.15 8.43C1.84 9.99 2 11.59 2.6 13.06C3.21 14.52 4.23 15.77 5.55 16.65ZM5.29 9.29C5.48 9.1 5.73 9 6 9L14 9C14.26 9 14.51 9.1 14.7 9.29C14.89 9.48 15 9.73 15 10C15 10.26 14.89 10.51 14.7 10.7C14.51 10.89 14.26 11 14 11L6 11C5.73 11 5.48 10.89 5.29 10.7C5.1 10.51 5 10.26 5 10C5 9.73 5.1 9.48 5.29 9.29Z" fill="#000000" fill-opacity="1.000000" fill-rule="evenodd"/>
</svg>
